<svg width="181" height="54" viewBox="0 0 181 54" fill="none" xmlns="http://www.w3.org/2000/svg">
<rect x="0.687012" width="180" height="54" rx="4" fill="black"/>
<path d="M41.4205 25.1727C41.3824 20.618 44.8811 18.4022 45.0411 18.299C43.0596 15.1857 39.9885 14.7604 38.9093 14.7264C36.3299 14.4339 33.8278 16.3898 32.5139 16.3898C31.1737 16.3898 29.1503 14.7547 26.9695 14.8028C24.1633 14.8494 21.538 16.6003 20.0981 19.3193C17.1266 24.8633 19.3428 33.0103 22.1897 37.4915C23.6138 39.6876 25.2779 42.1367 27.456 42.0505C29.587 41.9572 30.3829 40.5878 32.9545 40.5878C35.5024 40.5878 36.2499 42.0505 38.4713 41.9954C40.7582 41.9572 42.1981 39.7908 43.5724 37.5763C45.2181 35.0623 45.879 32.5835 45.9052 32.4563C45.8528 32.4365 41.465 30.6305 41.4205 25.1727ZM37.2242 11.7785C38.3703 10.2339 39.1545 8.1325 38.9368 6C37.2779 6.07914 35.2034 7.23654 34.0088 8.74724C32.9519 10.0785 32.0077 12.2604 32.2516 14.3124C34.115 14.4622 36.0282 13.2991 37.2242 11.7785Z" fill="white"/>
<path d="M72.2851 41.7375H69.3071L67.6758 36.2133H62.0055L60.4516 41.7375H57.5522L63.1713 22.9307H66.6411L72.2851 41.7375ZM67.184 33.8957L65.7088 28.9848C65.5527 28.4832 65.259 27.3017 64.8288 25.442H64.7764C64.6033 26.2418 64.3266 27.4233 63.9476 28.9848L62.4973 33.8957H67.184ZM86.7072 34.7902C86.7072 37.0966 86.1263 38.9196 84.9631 40.2579C83.9219 41.4492 82.6276 42.0441 81.0842 42.0441C79.4175 42.0441 78.2189 41.404 77.4911 40.1208V47.2362H74.6953V32.6337C74.6953 31.1852 74.6599 29.6999 74.5917 28.1765H77.0505L77.2065 30.326H77.259C78.1914 28.7064 79.6063 27.8967 81.5051 27.8967C82.9895 27.8967 84.2288 28.5284 85.2201 29.7932C86.2102 31.0608 86.7072 32.7256 86.7072 34.7902ZM83.859 34.9005C83.859 33.5805 83.5836 32.4924 83.0302 31.6346C82.4257 30.7429 81.6139 30.2963 80.5964 30.2963C79.9066 30.2963 79.2798 30.545 78.7198 31.0354C78.1586 31.53 77.7914 32.1758 77.6196 32.9757C77.5429 33.2748 77.4994 33.5827 77.4898 33.8929V36.1554C77.4898 37.1404 77.7704 37.9727 78.3317 38.6539C78.8929 39.3322 79.622 39.6728 80.519 39.6728C81.572 39.6728 82.3916 39.2333 82.9777 38.3614C83.5652 37.4866 83.859 36.3334 83.859 34.9005ZM101.18 34.7902C101.18 37.0966 100.599 38.9196 99.4363 40.2579C98.3938 41.4492 97.1008 42.0441 95.5561 42.0441C93.8894 42.0441 92.6908 41.404 91.963 40.1208V47.2362H89.1672V32.6337C89.1672 31.1852 89.1318 29.6999 89.0637 28.1765H91.5224L91.6785 30.326H91.7309C92.662 28.7064 94.0769 27.8967 95.977 27.8967C97.4601 27.8967 98.6994 28.5284 99.6933 29.7932C100.682 31.0608 101.18 32.7256 101.18 34.7902ZM98.3309 34.9005C98.3309 33.5805 98.0542 32.4924 97.5008 31.6346C96.8963 30.7429 96.0872 30.2963 95.0696 30.2963C94.3798 30.2963 93.753 30.545 93.1904 31.0354C92.6292 31.53 92.2633 32.1758 92.0915 32.9757C92.0063 33.3488 91.9604 33.6526 91.9604 33.8929V36.1554C91.9604 37.1404 92.2423 37.9727 92.801 38.6539C93.3622 39.3308 94.0913 39.6728 94.9909 39.6728C96.0452 39.6728 96.8648 39.2333 97.4496 38.3614C98.0371 37.4866 98.3309 36.3334 98.3309 34.9005ZM117.362 36.462C117.362 38.0632 116.843 39.3647 115.811 40.3695C114.675 41.4661 113.09 42.0159 111.057 42.0159C109.18 42.0159 107.674 41.6258 106.539 40.8443L107.185 38.3331C108.411 39.116 109.758 39.506 111.224 39.506C112.278 39.506 113.098 39.2488 113.683 38.7387C114.269 38.2271 114.565 37.5431 114.565 36.6896C114.565 35.925 114.32 35.2848 113.839 34.7634C113.355 34.2433 112.555 33.7586 111.431 33.3134C108.376 32.0854 106.847 30.2892 106.847 27.9264C106.847 26.3832 107.387 25.1198 108.465 24.132C109.543 23.1455 110.972 22.6523 112.75 22.6523C114.338 22.6523 115.661 22.9505 116.712 23.5455L116.01 26.0016C115.022 25.425 113.906 25.1367 112.657 25.1367C111.671 25.1367 110.897 25.3982 110.344 25.9182C109.878 26.3832 109.642 26.9499 109.642 27.6225C109.642 28.3645 109.911 28.9806 110.446 29.4639C110.911 29.9091 111.758 30.3938 112.982 30.9138C114.485 31.5667 115.589 32.327 116.296 33.2004C117.008 34.0737 117.362 35.1633 117.362 36.462ZM126.629 30.4376H123.548V37.0217C123.548 38.6963 124.091 39.5315 125.179 39.5315C125.679 39.5315 126.093 39.4863 126.421 39.3916L126.498 41.6795C125.948 41.9014 125.222 42.013 124.324 42.013C123.22 42.013 122.357 41.6499 121.734 40.9235C121.114 40.1971 120.802 38.9803 120.802 37.2676V30.432H118.966V28.1708H120.802V25.6879L123.548 24.7947V28.1708H126.629V30.4376ZM140.506 34.8453C140.506 36.9298 139.953 38.6412 138.849 39.9795C137.693 41.3573 136.156 42.0441 134.24 42.0441C132.392 42.0441 130.921 41.3842 129.825 40.0657C128.729 38.7443 128.181 37.0796 128.181 35.0715C128.181 32.97 128.747 31.2488 129.876 29.9105C131.008 28.5708 132.532 27.9009 134.448 27.9009C136.294 27.9009 137.777 28.5623 138.9 29.8822C139.972 31.1626 140.506 32.816 140.506 34.8453ZM137.608 34.9146C137.608 33.6724 137.359 32.6069 136.859 31.7151C136.273 30.6383 135.434 30.0999 134.347 30.0999C133.227 30.0999 132.368 30.6383 131.783 31.7151C131.282 32.6069 131.033 33.6908 131.033 34.9711C131.033 36.2147 131.282 37.2831 131.783 38.172C132.388 39.2488 133.231 39.7873 134.323 39.7873C135.392 39.7873 136.23 39.2375 136.836 38.1451C137.35 37.2322 137.608 36.1596 137.608 34.9146ZM149.598 30.8262C149.307 30.7697 149.012 30.7418 148.716 30.7429C147.733 30.7429 146.972 31.1414 146.437 31.9441C145.973 32.6507 145.74 33.5438 145.74 34.6221V41.7375H142.944V32.4472C142.946 31.0236 142.919 29.6002 142.863 28.1779H145.298L145.4 30.7725H145.477C145.774 29.8808 146.238 29.1615 146.875 28.6231C147.459 28.1526 148.167 27.8978 148.896 27.8967C149.154 27.8967 149.388 27.9165 149.595 27.9518L149.598 30.8262ZM162.101 34.3154C162.108 34.7734 162.074 35.2311 161.999 35.682H153.612C153.643 37.0217 154.05 38.0476 154.828 38.7542C155.535 39.3845 156.449 39.7011 157.572 39.7011C158.814 39.7011 159.947 39.4891 160.966 39.0609L161.404 41.151C160.213 41.7106 158.807 41.989 157.185 41.989C155.234 41.989 153.702 41.37 152.587 40.1349C151.475 38.8984 150.918 37.2365 150.918 35.1548C150.918 33.1114 151.436 31.4085 152.473 30.0504C153.559 28.6005 155.026 27.8755 156.873 27.8755C158.686 27.8755 160.059 28.6005 160.992 30.0504C161.73 31.1993 162.101 32.6238 162.101 34.3154ZM159.435 33.5339C159.455 32.6394 159.271 31.8692 158.892 31.2177C158.408 30.3783 157.664 29.9599 156.666 29.9599C155.752 29.9599 155.007 30.3684 154.44 31.188C153.975 31.8395 153.698 32.6224 153.613 33.5311L159.435 33.5339Z" fill="white"/>
<path d="M61.1983 16.2813C60.4206 16.2813 59.7479 16.2403 59.188 16.171V7.07858C59.9711 6.94821 60.7625 6.88395 61.555 6.88639C64.7612 6.88639 66.2377 8.58646 66.2377 11.3577C66.2377 14.5544 64.4936 16.2813 61.1983 16.2813ZM61.6677 8.05227C61.235 8.05227 60.8665 8.08053 60.561 8.14837V15.0603C60.7262 15.0885 61.0435 15.1013 61.4894 15.1013C63.5901 15.1013 64.7861 13.8124 64.7861 11.3987C64.7861 9.24642 63.7042 8.05227 61.6677 8.05227ZM70.8392 16.3505C69.0322 16.3505 67.8612 14.8963 67.8612 12.9221C67.8612 10.8645 69.0571 9.39763 70.9415 9.39763C72.7223 9.39763 73.9195 10.7826 73.9195 12.8133C73.9195 14.8963 72.6856 16.3505 70.8392 16.3505ZM70.8917 10.4801C69.899 10.4801 69.263 11.4807 69.263 12.8797C69.263 14.2519 69.9121 15.2525 70.8785 15.2525C71.845 15.2525 72.4941 14.1827 72.4941 12.8515C72.4941 11.4948 71.8581 10.4801 70.8917 10.4801ZM84.224 9.53471L82.2898 16.1993H81.0296L80.2284 13.3051C80.0292 12.5972 79.8633 11.8788 79.7314 11.1528H79.7052C79.6042 11.8792 79.4127 12.607 79.2095 13.3051L78.3571 16.1993H77.0838L75.2637 9.53471H76.676L77.3762 12.7031C77.5414 13.4577 77.6804 14.17 77.7958 14.8426H77.8221C77.923 14.2816 78.0883 13.5807 78.3309 12.7172L79.2095 9.53612H80.3293L81.1699 12.6494C81.3732 13.404 81.5384 14.1445 81.6669 14.8441H81.7036C81.7928 14.1587 81.9331 13.4309 82.1233 12.6494L82.8747 9.53612L84.224 9.53471ZM91.3446 16.1993H89.9703V12.3724C89.9703 11.1938 89.5507 10.6031 88.7232 10.6031C87.9089 10.6031 87.3489 11.3577 87.3489 12.2353V16.1993H85.9747V11.4397C85.9747 10.8504 85.9615 10.2187 85.9235 9.53329H87.1326L87.1968 10.5621H87.2348C87.6046 9.84985 88.3547 9.39763 89.1953 9.39763C90.4935 9.39763 91.3459 10.4674 91.3459 12.2085L91.3446 16.1993ZM95.1343 16.1993H93.7587V6.47656H95.1343V16.1993ZM100.145 16.3505C98.3392 16.3505 97.1669 14.8963 97.1669 12.9221C97.1669 10.8645 98.3628 9.39763 100.246 9.39763C102.028 9.39763 103.224 10.7826 103.224 12.8133C103.225 14.8963 101.99 16.3505 100.145 16.3505ZM100.196 10.4801C99.2034 10.4801 98.5674 11.4807 98.5674 12.8797C98.5674 14.2519 99.2178 15.2525 100.182 15.2525C101.149 15.2525 101.797 14.1827 101.797 12.8515C101.799 11.4948 101.164 10.4801 100.196 10.4801ZM108.642 16.1993L108.543 15.4319H108.506C108.086 16.0495 107.474 16.3505 106.698 16.3505C105.59 16.3505 104.803 15.5139 104.803 14.389C104.803 12.7441 106.126 11.8933 108.417 11.8933V11.7704C108.417 10.8928 107.985 10.4533 107.133 10.4533C106.523 10.4533 105.988 10.6186 105.517 10.9479L105.238 9.97421C105.81 9.58982 106.523 9.39763 107.361 9.39763C108.977 9.39763 109.792 10.3162 109.792 12.1548V14.6095C109.792 15.2821 109.82 15.8036 109.882 16.2007L108.642 16.1993ZM108.454 12.8797C106.927 12.8797 106.161 13.2782 106.161 14.2237C106.161 14.9232 106.556 15.2652 107.104 15.2652C107.803 15.2652 108.454 14.69 108.454 13.9085V12.8797ZM116.466 16.1993L116.402 15.1295H116.364C115.969 15.9379 115.305 16.3505 114.378 16.3505C112.887 16.3505 111.783 14.9373 111.783 12.949C111.783 10.8645 112.928 9.39621 114.491 9.39621C115.318 9.39621 115.905 9.69722 116.235 10.3021H116.263V6.47656H117.638V14.4031C117.638 15.0476 117.653 15.651 117.689 16.1993H116.466ZM116.263 12.2777C116.263 11.345 115.69 10.5494 114.815 10.5494C113.796 10.5494 113.173 11.5231 113.173 12.8939C113.173 14.2378 113.82 15.1578 114.787 15.1578C115.651 15.1578 116.263 14.348 116.263 13.3885V12.2777ZM126.36 16.3505C124.554 16.3505 123.383 14.8963 123.383 12.9221C123.383 10.8645 124.579 9.39763 126.462 9.39763C128.244 9.39763 129.44 10.7826 129.44 12.8133C129.442 14.8963 128.208 16.3505 126.36 16.3505ZM126.411 10.4801C125.42 10.4801 124.784 11.4807 124.784 12.8797C124.784 14.2519 125.433 15.2525 126.398 15.2525C127.366 15.2525 128.013 14.1827 128.013 12.8515C128.016 11.4948 127.38 10.4801 126.411 10.4801ZM136.831 16.1993H135.455V12.3724C135.455 11.1938 135.036 10.6031 134.208 10.6031C133.394 10.6031 132.835 11.3577 132.835 12.2353V16.1993H131.46V11.4397C131.46 10.8504 131.447 10.2187 131.409 9.53329H132.618L132.682 10.5621H132.72C133.088 9.84985 133.84 9.39621 134.679 9.39621C135.977 9.39621 136.831 10.466 136.831 12.207V16.1993ZM146.077 10.6455H144.565V13.8817C144.565 14.7056 144.83 15.1168 145.365 15.1168C145.608 15.1168 145.811 15.0885 145.975 15.0476L146.013 16.1725C145.747 16.2827 145.39 16.3378 144.947 16.3378C143.864 16.3378 143.216 15.6934 143.216 14.006V10.6455H142.314V9.53471H143.216V8.31371L144.565 7.87421V9.53329H146.077V10.6455ZM153.352 16.1993H151.979V12.4007C151.979 11.2079 151.561 10.6045 150.732 10.6045C150.02 10.6045 149.357 11.126 149.357 12.1816V16.1993H147.984V6.47656H149.357V10.4801H149.384C149.817 9.75375 150.444 9.39621 151.244 9.39621C152.552 9.39621 153.352 10.4928 153.352 12.2353V16.1993ZM160.806 13.2231H156.682C156.708 14.4851 157.483 15.1974 158.631 15.1974C159.24 15.1974 159.802 15.0871 160.297 14.8822L160.511 15.911C159.926 16.1852 159.238 16.3223 158.436 16.3223C156.502 16.3223 155.357 15.0052 155.357 12.9631C155.357 10.9196 156.53 9.38349 158.282 9.38349C159.862 9.38349 160.853 10.6455 160.853 12.5519C160.862 12.7768 160.846 13.0022 160.806 13.2231ZM159.546 12.1675C159.546 11.1387 159.065 10.4123 158.186 10.4123C157.397 10.4123 156.772 11.1528 156.683 12.1675H159.546Z" fill="white"/>
</svg>
