<svg width="181" height="54" viewBox="0 0 181 54" fill="none" xmlns="http://www.w3.org/2000/svg">
<rect x="0.687012" width="180" height="54" rx="4" fill="black"/>
<path d="M63.69 13.4366C63.69 14.5121 63.428 15.4532 62.7728 16.1254C61.9867 16.9321 61.0695 17.3354 59.8902 17.3354C58.711 17.3354 57.7938 16.9321 57.0076 16.1254C56.2214 15.3188 55.8284 14.3777 55.8284 13.1677C55.8284 11.9577 56.2214 11.0166 57.0076 10.21C57.7938 9.40333 58.711 9 59.8902 9C60.4143 9 60.9385 9.13444 61.4626 9.40332C61.9867 9.67221 62.3798 9.94109 62.6418 10.3444L61.9867 11.0166C61.4626 10.3444 60.8074 10.0755 59.8902 10.0755C59.1041 10.0755 58.3179 10.3444 57.7938 11.0166C57.1386 11.5544 56.8766 12.361 56.8766 13.3021C56.8766 14.2432 57.1386 15.0499 57.7938 15.5876C58.4489 16.1254 59.1041 16.5287 59.8902 16.5287C60.8074 16.5287 61.4626 16.2599 62.1177 15.5876C62.5108 15.1843 62.7728 14.6466 62.7728 13.9743H59.8902V12.8988H63.69V13.4366ZM69.7173 10.0755H66.1796V12.6299H69.4553V13.571H66.1796V16.1254H69.7173V17.2009H65.1313V9.13444H69.7173V10.0755ZM74.0412 17.2009H72.993V10.0755H70.7655V9.13444H76.2687V10.0755H74.0412V17.2009ZM80.0685 17.2009V9.13444H81.1167V17.2009H80.0685ZM86.0421 17.2009H84.5235V10.0755H82.296V9.13444H87.6681V10.0755H85.4407V17.2009H86.0421ZM98.0193 16.1254C97.2332 16.9321 96.316 17.3354 95.1367 17.3354C93.9575 17.3354 93.0403 16.9321 92.2541 16.1254C91.4679 15.3188 91.0749 14.3777 91.0749 13.1677C91.0749 11.9577 91.4679 11.0166 92.2541 10.21C93.0403 9.40333 93.9575 9 95.1367 9C96.316 9 97.2332 9.40333 98.0193 10.21C98.8055 11.0166 99.1986 11.9577 99.1986 13.1677C99.1986 14.3777 98.8055 15.3188 98.0193 16.1254ZM93.0403 15.4532C93.5644 15.991 94.3506 16.3943 95.1367 16.3943C95.9229 16.3943 96.7091 16.1254 97.2332 15.4532C97.7573 14.9154 98.1504 14.1088 98.1504 13.1677C98.1504 12.2266 97.8883 11.42 97.2332 10.8822C96.7091 10.3444 95.9229 9.94109 95.1367 9.94109C94.3506 9.94109 93.5644 10.21 93.0403 10.8822C92.5162 11.42 92.1231 12.2266 92.1231 13.1677C92.1231 14.1088 92.3851 14.9154 93.0403 15.4532ZM100.64 17.2009V9.13444H101.819L105.619 15.4532V9.13444H106.667V17.2009H105.619L101.557 10.6133V17.2009H100.64Z" fill="white"/>
<path d="M90.8133 29.0317C87.6686 29.0317 85.1791 31.4516 85.1791 34.8126C85.1791 38.0392 87.6686 40.5936 90.8133 40.5936C93.958 40.5936 96.4475 38.1737 96.4475 34.8126C96.4475 31.3172 93.958 29.0317 90.8133 29.0317ZM90.8133 38.1737C89.11 38.1737 87.6686 36.6948 87.6686 34.6782C87.6686 32.6616 89.11 31.1827 90.8133 31.1827C92.5167 31.1827 93.958 32.5271 93.958 34.6782C93.958 36.6948 92.5167 38.1737 90.8133 38.1737ZM78.6277 29.0317C75.4831 29.0317 72.9935 31.4516 72.9935 34.8126C72.9935 38.0392 75.4831 40.5936 78.6277 40.5936C81.7724 40.5936 84.2619 38.1737 84.2619 34.8126C84.2619 31.3172 81.7724 29.0317 78.6277 29.0317ZM78.6277 38.1737C76.9244 38.1737 75.4831 36.6948 75.4831 34.6782C75.4831 32.6616 76.9244 31.1827 78.6277 31.1827C80.3311 31.1827 81.7724 32.5271 81.7724 34.6782C81.7724 36.6948 80.3311 38.1737 78.6277 38.1737ZM64.0836 30.7794V33.1993H69.7178C69.5868 34.5438 69.0627 35.6193 68.4076 36.2915C67.6214 37.0982 66.3111 38.0392 64.0836 38.0392C60.5459 38.0392 57.9253 35.216 57.9253 31.586C57.9253 27.9561 60.6769 25.1328 64.0836 25.1328C65.918 25.1328 67.3593 25.9395 68.4076 26.8806L70.1109 25.1328C68.6696 23.7884 66.8352 22.7129 64.2147 22.7129C59.4977 22.7129 55.4358 26.7461 55.4358 31.586C55.4358 36.4259 59.4977 40.4592 64.2147 40.4592C66.8352 40.4592 68.6696 39.6525 70.2419 37.9048C71.8143 36.2915 72.3384 34.006 72.3384 32.2583C72.3384 31.7205 72.3384 31.1827 72.2074 30.7794H64.0836ZM123.57 32.6616C123.046 31.3172 121.736 29.0317 118.853 29.0317C115.971 29.0317 113.612 31.3172 113.612 34.8126C113.612 38.0392 115.971 40.5936 119.115 40.5936C121.605 40.5936 123.177 38.9803 123.701 38.0392L121.867 36.6948C121.212 37.6359 120.426 38.3081 119.115 38.3081C117.805 38.3081 117.019 37.7704 116.364 36.5604L123.832 33.3338L123.57 32.6616ZM115.971 34.5438C115.971 32.3927 117.674 31.1827 118.853 31.1827C119.77 31.1827 120.688 31.7205 120.95 32.3927L115.971 34.5438ZM109.812 40.0559H112.302V23.2507H109.812V40.0559ZM105.882 30.2416C105.226 29.5694 104.178 28.8972 102.868 28.8972C100.116 28.8972 97.4957 31.4516 97.4957 34.6782C97.4957 37.9048 99.9853 40.3248 102.868 40.3248C104.178 40.3248 105.226 39.6525 105.75 38.9803H105.882V39.787C105.882 41.9381 104.702 43.148 102.868 43.148C101.427 43.148 100.378 42.0725 100.116 41.1314L98.0198 42.0725C98.675 43.5514 100.247 45.4335 102.999 45.4335C105.882 45.4335 108.24 43.6858 108.24 39.5181V29.3005H105.882V30.2416ZM102.999 38.1737C101.296 38.1737 99.8542 36.6948 99.8542 34.6782C99.8542 32.6616 101.296 31.1827 102.999 31.1827C104.702 31.1827 106.013 32.6616 106.013 34.6782C106.013 36.6948 104.702 38.1737 102.999 38.1737ZM134.97 23.2507H129.073V40.0559H131.563V33.7371H134.97C137.721 33.7371 140.342 31.7205 140.342 28.4939C140.342 25.2673 137.721 23.2507 134.97 23.2507ZM135.101 31.3172H131.563V25.5362H135.101C136.935 25.5362 137.983 27.1495 137.983 28.3594C137.852 29.8383 136.804 31.3172 135.101 31.3172ZM150.169 28.8972C148.335 28.8972 146.5 29.7039 145.845 31.4516L148.072 32.3927C148.597 31.4516 149.383 31.1827 150.3 31.1827C151.61 31.1827 152.789 31.9894 152.921 33.3338V33.4682C152.527 33.1993 151.479 32.796 150.431 32.796C148.072 32.796 145.714 34.1404 145.714 36.5604C145.714 38.8459 147.679 40.3248 149.776 40.3248C151.479 40.3248 152.265 39.5181 152.921 38.7115H153.052V40.0559H155.41V33.6027C155.148 30.645 152.921 28.8972 150.169 28.8972ZM149.907 38.1737C149.121 38.1737 147.941 37.7704 147.941 36.6948C147.941 35.3504 149.383 34.9471 150.562 34.9471C151.61 34.9471 152.134 35.216 152.789 35.4849C152.527 37.0982 151.217 38.1737 149.907 38.1737ZM163.665 29.3005L160.913 36.5604H160.782L157.9 29.3005H155.279L159.603 39.5181L157.113 45.1647H159.603L166.285 29.3005H163.665ZM141.652 40.0559H144.142V23.2507H141.652V40.0559Z" fill="white"/>
<path d="M15.2108 9.80566C14.8177 10.209 14.6866 10.8812 14.6866 11.6878V41.3995C14.6866 42.2061 14.9487 42.8783 15.3418 43.2817L15.4728 43.4161L31.7203 26.7453V26.4764L15.2108 9.80566Z" fill="url(#paint0_linear_1075_921)"/>
<path d="M36.9603 32.3924L31.5881 26.8803V26.477L36.9603 20.9648L37.0913 21.0993L43.5117 24.8637C45.3461 25.9392 45.3461 27.6869 43.5117 28.7625L36.9603 32.3924Z" fill="url(#paint1_linear_1075_921)"/>
<path d="M37.0919 32.2579L31.5887 26.6113L15.2102 43.4165C15.8653 44.0888 16.7825 44.0887 17.9618 43.551L37.0919 32.2579Z" fill="url(#paint2_linear_1075_921)"/>
<path d="M37.0916 20.9649L17.9615 9.8062C16.7823 9.13399 15.8651 9.26843 15.21 9.94064L31.5884 26.6114L37.0916 20.9649Z" fill="url(#paint3_linear_1075_921)"/>
<path opacity="0.2" d="M36.9608 32.123L17.9618 43.1473C16.9136 43.8195 15.9964 43.685 15.3412 43.1473L15.2102 43.2817L15.3412 43.4162C15.9964 43.9539 16.9136 44.0884 17.9618 43.4162L36.9608 32.123Z" fill="black"/>
<path opacity="0.12" d="M15.2109 43.1477C14.8178 42.7443 14.6868 42.0721 14.6868 41.2655V41.3999C14.6868 42.2066 14.9488 42.8788 15.3419 43.2821V43.1477H15.2109ZM43.5129 28.3591L36.9615 32.1234L37.0925 32.2579L43.5129 28.4935C44.4301 27.9557 44.8232 27.2835 44.8232 26.6113C44.8232 27.2835 44.2991 27.8213 43.5129 28.3591Z" fill="black"/>
<path opacity="0.25" d="M17.9625 9.9408L43.5129 24.8638C44.2991 25.4016 44.8232 25.9394 44.8232 26.6116C44.8232 25.9394 44.4301 25.2672 43.5129 24.7294L17.9625 9.80635C16.1281 8.73082 14.6868 9.53747 14.6868 11.6885V11.823C14.6868 9.80635 16.1281 8.86526 17.9625 9.9408Z" fill="white"/>
<defs>
<linearGradient id="paint0_linear_1075_921" x1="30.1479" y1="11.4324" x2="7.59208" y2="33.4142" gradientUnits="userSpaceOnUse">
<stop stop-color="#00A0FF"/>
<stop offset="0.007" stop-color="#00A1FF"/>
<stop offset="0.26" stop-color="#00BEFF"/>
<stop offset="0.512" stop-color="#00D2FF"/>
<stop offset="0.76" stop-color="#00DFFF"/>
<stop offset="1" stop-color="#00E3FF"/>
</linearGradient>
<linearGradient id="paint1_linear_1075_921" x1="28.7121" y1="26.6786" x2="47.8222" y2="26.6786" gradientUnits="userSpaceOnUse">
<stop stop-color="#F0CF30"/>
<stop offset="1" stop-color="#B4832C"/>
</linearGradient>
<linearGradient id="paint2_linear_1075_921" x1="34.1136" y1="29.6981" x2="3.52747" y2="59.5076" gradientUnits="userSpaceOnUse">
<stop stop-color="#FF3A44"/>
<stop offset="1" stop-color="#C31162"/>
</linearGradient>
<linearGradient id="paint3_linear_1075_921" x1="11.1442" y1="-0.0403086" x2="24.803" y2="13.2717" gradientUnits="userSpaceOnUse">
<stop stop-color="#32A071"/>
<stop offset="0.069" stop-color="#2DA771"/>
<stop offset="0.476" stop-color="#15CF74"/>
<stop offset="0.801" stop-color="#06E775"/>
<stop offset="1" stop-color="#00F076"/>
</linearGradient>
</defs>
</svg>
